<svg width="40" height="40" viewBox="0 0 40 40" fill="none" xmlns="http://www.w3.org/2000/svg">
<path d="M37.9639 33.0808V9.58619C38.4552 9.61335 39.2583 9.64123 39.247 8.91483C39.025 8.31304 39.8383 4.09196 38.6054 4.21598C37.6729 4.44464 34.1218 3.40581 34.7561 5.55853H32.8314C32.8565 5.04631 32.8846 4.20279 32.1897 4.21602C31.6075 4.4319 28.2517 3.63345 28.3405 4.88701C28.6245 5.83661 27.4466 10.3338 29.6235 9.58619V11.6C26.2614 11.2942 27.1666 12.1945 27.0573 14.9564H23.8495C23.668 14.3481 24.3546 11.535 23.208 11.6001L16.7923 11.6C15.654 11.5275 16.3187 14.358 16.1507 14.9564H12.9429C12.8357 12.1821 13.733 11.2973 10.3766 11.6V9.58619C10.8664 9.612 11.6722 9.6422 11.6597 8.91483L11.6597 4.88726C11.7569 3.63874 8.38218 4.42363 7.81031 4.21573C7.11886 4.20457 7.13992 5.04463 7.16879 5.55853H5.2441C5.26919 5.04631 5.29735 4.20279 4.60245 4.21602C4.02025 4.4319 0.664411 3.63345 0.753184 4.88701C1.0372 5.83661 -0.140714 10.3338 2.03627 9.58619V33.0808C0.199963 33.0203 0.220596 37.1705 2.03612 37.1085H37.9639C39.8003 37.1686 39.7796 33.0191 37.9639 33.0808ZM29.6235 5.55853H31.5482C31.5226 6.07247 31.4954 6.91301 32.1899 6.90104C33.1222 6.67242 36.6734 7.71117 36.0392 5.55853H37.9639V8.24364H29.6235V5.55853ZM34.7557 20.9979C36.0916 21.6157 35.1187 9.95026 35.3976 9.58619H36.6808V25.9675C35.5893 26.3872 34.8775 27.503 34.0446 28.3103C33.9719 28.3885 33.9312 28.4933 33.9312 28.6024C33.9312 28.7115 33.9719 28.8163 34.0446 28.8945C34.1201 28.969 34.22 29.0105 34.3237 29.0105C34.4275 29.0105 34.5274 28.969 34.6029 28.8945C35.3359 28.3213 36.0302 27.6957 36.6808 27.0223V28.5724C36.0329 28.6632 35.5982 29.2945 35.1419 29.7307C34.9804 29.978 34.542 30.2338 34.7608 30.5682C34.8057 30.6277 34.8694 30.6686 34.9405 30.6834C35.0116 30.6983 35.0855 30.6862 35.1488 30.6492C35.6932 30.4059 36.2076 30.0948 36.6808 29.7225V30.7185C36.3677 30.9697 36.0733 31.2454 35.8001 31.5431C35.7327 31.6149 35.695 31.7114 35.695 31.812C35.695 31.9125 35.7327 32.0091 35.8001 32.0808C36.1206 32.3989 36.4341 31.9534 36.6807 31.752V33.0808H30.9067V9.58619H34.1145C34.3975 10.0105 33.4145 21.5702 34.7557 20.9979ZM11.6597 12.9426C11.0629 18.1212 13.4156 15.8244 16.7925 16.2992C17.9298 16.3715 17.2663 13.5409 17.4338 12.9426H22.5663C21.9694 18.1212 24.3222 15.8244 27.699 16.2992C28.8364 16.3715 28.1729 13.5409 28.3404 12.9426H29.6235V18.3128C26.1723 17.833 26.1869 20.138 29.6235 19.6553V33.0808H25.7742C27.8775 19.7155 12.1182 19.7337 14.226 33.0808H10.3766V19.6553C10.766 19.3257 25.0594 20.4402 24.4912 18.9845C25.1119 17.5344 10.6997 18.6376 10.3766 18.3128V12.9426H11.6597ZM24.491 33.0808H15.5091C13.647 21.4607 26.3584 21.4798 24.491 33.0808ZM2.03627 5.55853H3.96097C3.93536 6.07247 3.9081 6.91301 4.60261 6.90104C5.53489 6.67242 9.08612 7.71117 8.45192 5.55853H10.3766V8.24364H2.03627V5.55853ZM3.3194 31.7187C3.63247 31.6362 3.92345 31.4802 4.17022 31.2624C4.41699 31.0446 4.61306 30.7708 4.74352 30.4618C4.80627 29.5356 3.6546 30.105 3.3194 30.5126V30.0521C3.79464 29.9175 4.23684 29.678 4.61629 29.3497C5.0802 29.0699 5.46731 28.6695 5.74024 28.1875C5.77621 28.1185 5.79226 28.0402 5.78643 27.9619C5.7806 27.8836 5.75314 27.8088 5.70741 27.7466C5.66167 27.6843 5.59962 27.6373 5.52882 27.6113C5.45801 27.5853 5.38151 27.5814 5.30861 27.6C4.51276 27.7529 3.91855 28.4451 3.3194 28.97V27.4492C4.48697 26.6929 5.98587 26.0713 6.69811 24.8013C6.61456 23.1739 3.79256 26.0342 3.3194 26.4525V9.58619H4.60253C4.88556 10.0105 3.90258 21.5702 5.2437 20.9979C6.57962 21.6157 5.60678 9.95026 5.88566 9.58619H9.09348V33.0808H3.3194V31.7187ZM2.03627 35.766V34.4234H37.9639L37.9652 35.766H2.03627Z" fill="#5A3E23"/>
<path d="M37.5665 21.2856C37.6613 21.4059 37.7961 21.4855 37.9446 21.5088C38.0931 21.5321 38.2447 21.4975 38.3699 21.4118C38.495 21.326 38.5848 21.1953 38.6218 21.0449C38.6588 20.8945 38.6403 20.7353 38.5699 20.5982C38.1477 19.8729 37.0702 20.6092 37.5665 21.2856Z" fill="#5A3E23"/>
<path d="M6.79316 20.8883C5.95893 20.263 5.263 21.7879 6.22189 22.1045C6.36911 22.1364 6.52242 22.1166 6.65746 22.0481C6.7925 21.9797 6.90151 21.8666 6.96717 21.7268C7.03283 21.587 7.05137 21.4285 7.01984 21.2766C6.98831 21.1247 6.90853 20.988 6.79316 20.8883Z" fill="#5A3E23"/>
<path d="M13.9187 21.814C13.6587 22.1226 13.3689 22.4048 13.0826 22.6887C13.3592 22.1236 13.5763 21.5296 13.7301 20.9166C13.7498 20.8326 13.7434 20.7443 13.7119 20.6642C13.6803 20.5841 13.6252 20.5163 13.5543 20.4704C13.4812 20.4267 13.3962 20.4091 13.3124 20.4203C13.2286 20.4314 13.1507 20.4708 13.0907 20.5322C12.5665 21.3664 12.1124 22.2455 11.7337 23.1599C11.0633 24.2405 12.2128 25.2136 13.0068 24.1623C12.8575 24.5337 12.764 24.9264 12.7294 25.327C12.7047 25.8326 13.3438 25.9231 13.5848 25.5662C14.0621 24.5119 14.4307 23.4085 14.6845 22.2745C14.7973 21.8394 14.2291 21.4455 13.9187 21.814Z" fill="#5A3E23"/>
<path d="M27.7375 24.8505C27.6429 25.0919 27.6312 25.3595 27.7041 25.6088C27.7288 25.6978 27.7755 25.7786 27.8396 25.8434C27.9036 25.9082 27.9828 25.9546 28.0695 25.9783C28.1562 26.0019 28.2473 26.0019 28.334 25.9782C28.4206 25.9545 28.4998 25.908 28.5639 25.8432C29.0281 25.3377 29.018 24.572 29.1774 23.9271C29.5117 22.4224 27.7359 22.2349 27.5611 23.7076C27.5817 23.6565 27.4735 23.8298 27.5421 23.7491C27.5311 23.765 27.5161 23.7775 27.4988 23.7853C27.4814 23.7931 27.4623 23.7959 27.4435 23.7933C27.3808 23.7178 27.3397 23.6258 27.3248 23.5275C27.31 23.4291 27.3221 23.3285 27.3596 23.2369C27.5304 22.7856 28.2306 22.8689 28.1022 22.2258C27.7923 21.3451 26.6449 22.0811 26.3341 22.5848C25.6481 23.6443 26.3971 25.3878 27.7375 24.8505ZM28.5174 23.5457C28.526 23.5369 28.5296 23.5388 28.5438 23.5318C28.5326 23.5367 28.5253 23.5415 28.5174 23.5457ZM28.2284 23.3537L28.2277 23.3519C28.2263 23.3294 28.2329 23.3239 28.2284 23.3537ZM27.4482 23.8007L27.4468 23.7994C27.4751 23.8199 27.501 23.8461 27.4482 23.8007Z" fill="#5A3E23"/>
</svg>
