<svg width="40" height="40" viewBox="0 0 40 40" fill="none" xmlns="http://www.w3.org/2000/svg">
<path d="M37.1666 0.979053C34.8812 2.12926 8.58147 -1.798 9.44116 3.61807C9.66948 4.16913 8.77302 20.4997 10.1384 20.053C11.1737 20.8177 13.4157 18.5067 14.2624 18.1422C16.5472 17.0493 40.5951 20.8517 39.8073 15.5031C38.9795 13.1262 42.0197 0.657781 37.1666 0.979053ZM38.4868 15.5017C36.4573 19.4411 13.2221 14.0315 10.7618 18.889C11.4132 17.7711 9.2977 1.76041 12.0814 2.29881L37.1666 2.29929C39.86 1.8631 37.9367 14.3937 38.4868 15.5017Z" fill="#5A3E23"/>
<path d="M27.9249 20.7821H2.84038C-1.96772 20.4406 0.95946 32.951 0.199057 35.305C-0.64035 40.6349 23.5187 36.8834 25.7445 37.9467C26.8687 38.6093 30.1878 41.6774 30.5654 38.692C29.6752 36.2856 32.9634 20.3486 27.9249 20.7821ZM29.2451 38.692C26.786 33.8338 3.55054 39.2448 1.51949 35.3059C2.13981 34.1655 0.107076 21.6915 2.83981 22.1022L27.9249 22.1024C30.6694 21.4893 28.6667 37.6687 29.2451 38.692Z" fill="#5A3E23"/>
<path d="M32.7805 5.6845C31.4631 5.07733 29.5336 5.4559 28.7881 6.76401C28.5706 7.246 28.4517 8.14806 29.1351 8.32135C29.2116 8.342 29.2922 8.34221 29.3688 8.32196C29.4454 8.30171 29.5154 8.26171 29.5717 8.20596C29.7796 8.01671 29.7784 7.60281 29.9064 7.40136C30.4228 6.76038 31.7787 6.28277 32.4729 6.82271C33.7385 8.08118 31.4134 8.43283 30.7913 9.15637C30.0922 9.7324 29.925 11.5204 31.1649 11.4278C31.5827 11.3331 31.6349 10.7519 31.4449 10.4549C31.4484 10.4181 31.4476 10.3809 31.4424 10.3443C31.5181 9.92767 31.9696 9.71993 32.3429 9.52145C33.1324 9.1142 33.9217 8.58527 33.9784 7.61041C33.9821 7.2088 33.8714 6.81444 33.6593 6.47341C33.4472 6.13237 33.1424 5.85874 32.7805 5.6845Z" fill="#5A3E23"/>
<path d="M31.374 11.9404C31.2216 11.9457 31.0773 12.01 30.9713 12.1196C30.8654 12.2293 30.8062 12.3759 30.8062 12.5283C30.8062 12.6808 30.8654 12.8274 30.9713 12.9371C31.0773 13.0467 31.2216 13.111 31.374 13.1163C31.5264 13.111 31.6708 13.0467 31.7768 12.9371C31.8827 12.8274 31.9419 12.6808 31.9419 12.5283C31.9419 12.3759 31.8827 12.2293 31.7768 12.1196C31.6708 12.01 31.5264 11.9457 31.374 11.9404Z" fill="#5A3E23"/>
<path d="M20.1406 5.19962C18.2525 5.14899 16.363 5.20387 14.481 5.36399C14.1426 5.40242 13.7916 5.40129 13.5669 5.69099C13.1564 6.27995 14.0193 6.53978 14.481 6.47967C16.3673 6.47963 18.2537 6.39671 20.1406 6.4721C20.8656 6.59361 21.6095 6.52959 22.303 6.28599C22.3684 6.24621 22.4223 6.19029 22.4598 6.12361C22.4973 6.05693 22.5169 5.98173 22.5169 5.90525C22.5169 5.82877 22.4973 5.75357 22.4598 5.68689C22.4223 5.62021 22.3684 5.56429 22.303 5.52451C21.7065 5.12634 20.8263 5.21061 20.1406 5.19962Z" fill="#5A3E23"/>
<path d="M21.6332 8.78276C20.9879 8.51145 20.2869 8.39918 19.5891 8.4554C17.5636 8.49463 15.545 8.70654 13.5555 9.0888C13.0762 9.17616 13.1848 9.9661 13.6706 9.93977C15.641 9.82467 17.6164 9.83039 19.5891 9.8177C20.2453 9.85368 20.9027 9.77132 21.5297 9.57454C21.8344 9.45863 22.0094 8.94924 21.6332 8.78276Z" fill="#5A3E23"/>
<path d="M19.8753 12.0623C17.8549 12.1056 15.843 12.3364 13.8653 12.7516C13.7509 12.7867 13.6527 12.8614 13.5882 12.9622C13.5237 13.063 13.4971 13.1835 13.5131 13.3021C13.5292 13.4207 13.5868 13.5298 13.6758 13.6099C13.7648 13.6899 13.8793 13.7358 13.999 13.7393C16.0036 13.67 18.0107 13.6713 20.0155 13.6982C20.6133 13.6939 21.7839 13.7215 21.692 12.821C21.6085 12.0031 20.471 12.0564 19.8753 12.0623Z" fill="#5A3E23"/>
<path d="M4.26137 26.2641C6.65796 26.4062 9.0515 26.2994 11.449 26.2398C11.807 26.2754 12.1671 26.1994 12.4801 26.0222C12.5528 25.977 12.6127 25.914 12.6543 25.8392C12.6958 25.7644 12.7176 25.6802 12.7176 25.5947C12.7176 25.5091 12.6958 25.425 12.6543 25.3502C12.6127 25.2754 12.5528 25.2124 12.4801 25.1672C11.9605 24.8253 11.1028 25.0271 10.5115 25.0571C8.48662 25.1529 6.25967 25.2615 4.26136 25.537C4.16729 25.5405 4.07824 25.5803 4.01293 25.6481C3.94762 25.7159 3.91113 25.8064 3.91113 25.9006C3.91113 25.9947 3.94762 26.0852 4.01294 26.153C4.07825 26.2208 4.1673 26.2606 4.26137 26.2641Z" fill="#5A3E23"/>
<path d="M12.7415 27.9293C12.0644 27.8398 11.3773 27.8591 10.7063 27.9864C8.69544 28.158 6.69304 28.4146 4.69915 28.7254C4.20797 28.8035 4.324 29.6144 4.81635 29.5915C7.4474 29.4023 10.1376 29.4787 12.7415 29.1755C12.8746 29.1343 12.991 29.0516 13.0736 28.9395C13.1563 28.8273 13.2009 28.6917 13.2009 28.5524C13.2009 28.4131 13.1563 28.2775 13.0736 28.1654C12.9909 28.0532 12.8746 27.9705 12.7415 27.9293Z" fill="#5A3E23"/>
<path d="M11.873 31.7845C11.2512 31.4472 10.4934 31.6644 9.83265 31.7736C7.89726 32.0755 5.9352 31.7445 3.98711 31.9135C3.54795 31.9287 3.40242 32.638 3.87812 32.7188C6.14773 33.0872 8.48514 33.5244 10.7682 33.0262C11.0936 33.0096 11.4162 32.9583 11.7307 32.8732C11.8411 32.839 11.9393 32.7738 12.0138 32.6854C12.0882 32.597 12.1358 32.4891 12.1507 32.3745C12.1657 32.2599 12.1475 32.1434 12.0983 32.0388C12.0491 31.9343 11.9709 31.846 11.873 31.7845Z" fill="#5A3E23"/>
<path d="M25.3896 26.9453C25.0482 26.9899 24.7362 27.1616 24.5158 27.4261C23.4746 28.3984 22.473 29.3398 21.4631 30.3542C21.0156 29.8483 20.664 29.2505 20.2658 28.7055C20.0096 28.3483 19.4293 28.6653 19.6646 29.0569C20.0639 29.68 20.3923 30.3559 20.8274 30.9527C20.922 31.0862 21.0538 31.1889 21.2064 31.2479C21.359 31.307 21.5255 31.3198 21.6853 31.2847C22.9064 30.5892 24.4185 29.0459 25.5639 28.0859C25.9724 27.7427 26.0557 26.9961 25.3896 26.9453Z" fill="#5A3E23"/>
<path d="M24.6806 23.9187C24.5938 23.8708 24.4978 23.8421 24.3989 23.8345C24.3001 23.8269 24.2008 23.8407 24.1078 23.8749C24.0148 23.9091 23.9302 23.9629 23.8597 24.0326C23.7893 24.1023 23.7347 24.1864 23.6996 24.2791C23.0934 23.5739 21.6067 23.558 20.8031 23.6748C17.0922 24.0794 15.0427 28.5198 16.7248 31.7364C17.2754 32.7962 18.1216 33.6737 19.1607 34.2624C20.1999 34.8511 21.3875 35.1259 22.5796 35.0535C26.4118 34.8582 29.845 30.4318 27.9391 26.7954C27.1485 25.5462 26.0182 24.5483 24.6806 23.9187ZM27.2987 29.7175C26.707 34.0146 20.63 35.5039 18.0753 31.9984C16.0636 29.4839 17.4125 25.2312 20.6685 24.6468C21.6538 24.3805 22.6868 24.6608 23.649 24.6944C23.6692 24.7853 23.7091 24.8706 23.7659 24.9443C23.8227 25.018 23.895 25.0783 23.9777 25.1211C25.7489 26.0086 27.6457 27.5019 27.2987 29.7175Z" fill="#5A3E23"/>
<path d="M34.0852 4.14332C33.9957 4.09414 33.8964 4.06527 33.7945 4.05875C33.6926 4.05224 33.5904 4.06824 33.4954 4.10562C33.4003 4.143 33.3146 4.20084 33.2444 4.27505C33.1742 4.34925 33.1212 4.438 33.0891 4.53499C32.4561 3.77882 30.9085 3.75593 30.0479 3.88081C26.1549 4.32514 24.049 8.90374 25.7925 12.2881C26.367 13.394 27.25 14.3094 28.3344 14.9235C29.4189 15.5375 30.6581 15.8237 31.902 15.7475C35.8955 15.5435 39.4779 10.9326 37.4876 7.14195C36.661 5.83976 35.481 4.7997 34.0852 4.14332ZM36.8687 10.1897C36.2402 14.7118 29.8547 16.2793 27.1655 12.5864C25.0522 9.94088 26.4719 5.4711 29.8953 4.85607C30.9415 4.57266 32.0297 4.87685 33.0526 4.91553C33.0724 5.00712 33.1123 5.09319 33.1693 5.16755C33.2263 5.24192 33.2991 5.30273 33.3825 5.34563C35.2479 6.27908 37.238 7.85943 36.8687 10.1897Z" fill="#5A3E23"/>
</svg>
