<svg width="40" height="40" viewBox="0 0 40 40" fill="none" xmlns="http://www.w3.org/2000/svg">
<path d="M37.7926 8.59639H37.1166C33.6533 3.82642 24.8766 5.95976 20.0368 8.50235C15.2062 5.96164 6.4125 3.82594 2.957 8.59639C1.66986 8.41532 0.29216 9.14066 0.308173 10.5693C1.85214 35.9815 -6.82157 34.8008 17.2603 34.2431C18.4221 35.2738 21.6508 35.2746 22.8128 34.2437C24.5728 33.5455 40.2918 36.1052 39.7655 32.2716C38.9705 30.7121 41.7934 7.66362 37.7926 8.59639ZM16.7487 32.9284C16.3843 32.608 0.974088 33.6941 1.62336 32.2708C2.25847 31.7248 0.100766 8.15358 2.93861 9.91163C3.47036 11.3121 1.5817 29.6659 4.25385 29.61C3.88915 33.3679 14.9849 30.9759 16.7487 31.6132V32.9284ZM5.5691 29.6306C9.42305 28.5137 13.5431 28.7492 17.2447 30.2979C16.8393 30.0033 4.98071 31.0263 5.5691 29.6306ZM5.13368 28.3867C3.19041 29.7127 4.70704 9.05445 4.25385 8.83691C8.18497 5.82254 14.9182 7.2395 19.3792 9.63358V29.8384C15.0013 27.5167 9.88992 26.9958 5.13368 28.3867ZM21.352 33.5873C19.636 33.4754 17.5475 34.3086 18.0639 31.6144H22.0096C21.9489 32.1715 22.2964 33.6092 21.352 33.5873ZM20.6944 29.8384V9.63356C22.8991 8.34359 25.3585 7.54974 27.9013 7.30729C30.4441 7.06483 33.0093 7.37961 35.418 8.22968C36.4145 40.5562 38.5966 21.8533 20.6944 29.8384ZM34.5045 29.6305C35.1338 31.0196 23.1808 30.0075 22.8284 30.2979C26.5299 28.7482 30.6505 28.5127 34.5045 29.6305ZM38.4502 32.2708C39.1556 33.6874 23.6187 32.6125 23.3249 32.9284V31.6131C25.1306 30.9731 36.1523 33.3708 35.8197 29.61C38.4797 29.734 36.6109 11.225 37.1349 9.91161C39.9601 8.05182 37.8235 31.8679 38.4502 32.2708Z" fill="#5A3E23"/>
<path d="M27.9479 12.1775C29.0049 11.6536 35.4272 13.9536 33.1609 11.4368C29.982 10.6978 25.9137 10.535 23.0877 12.3455C22.6291 13.9809 26.9495 11.8209 27.9479 12.1775Z" fill="#5A3E23"/>
<path d="M28.3742 16.0595C29.6206 16.0712 31.0425 16.0188 32.1818 16.5211C32.6424 17.0777 33.5156 16.4753 33.3452 15.844C31.3293 12.2802 16.053 17.9403 28.3742 16.0595Z" fill="#5A3E23"/>
<path d="M26.1046 20.3165C28.2086 20.1239 30.7219 19.9671 32.525 21.2224C32.5807 21.2767 32.6495 21.3157 32.7248 21.3355C32.8 21.3554 32.8791 21.3554 32.9544 21.3355C33.0296 21.3157 33.0984 21.2767 33.1541 21.2223C33.2098 21.168 33.2504 21.1001 33.2721 21.0254C32.8103 18.2589 28.0192 18.9716 25.8883 19.1801C23.6333 19.6975 23.2635 21.51 26.1046 20.3165Z" fill="#5A3E23"/>
<path d="M32.4891 24.4693C35.5984 22.3461 25.8702 22.219 25.1342 23.5715C24.1158 24.8466 31.1764 23.6696 32.4891 24.4693Z" fill="#5A3E23"/>
<path d="M12.6051 12.2392C13.9446 12.1035 15.4506 14.2836 16.4629 13.3333C16.7091 11.5033 13.6719 11.0744 12.3026 10.9146C11.5467 10.6725 6.01947 11.7472 7.56365 12.6005C9.18583 12.2888 10.9578 11.9356 12.6051 12.2392Z" fill="#5A3E23"/>
<path d="M15.3542 15.55C14.3492 14.7939 6.7803 14.2177 8.34107 16.2391C11.0352 15.569 14.1231 15.6944 16.3856 17.3974C17.7133 17.1335 15.994 15.6798 15.3542 15.55Z" fill="#5A3E23"/>
<path d="M11.7264 19.8577C13.0976 19.6179 15.5469 21.3676 16.4077 20.3311C15.6764 18.0164 9.9526 18.3617 8.15089 19.5714C7.27481 20.846 11.0087 19.3699 11.7264 19.8577Z" fill="#5A3E23"/>
<path d="M15.5547 23.3216C14.6844 22.3641 7.57863 22.1254 8.88934 23.7872C11.0102 23.4797 13.1748 23.7684 15.1409 24.6209C16.7932 25.5935 17.1891 23.8133 15.5547 23.3216Z" fill="#5A3E23"/>
</svg>
