<svg width="40" height="40" viewBox="0 0 40 40" fill="none" xmlns="http://www.w3.org/2000/svg">
<path d="M20 2C15.2278 2.00542 10.6525 3.9085 7.27805 7.29173C3.90357 10.675 2.00541 15.262 2 20.0466C2.9888 43.988 37.0149 43.981 38 20.0465C37.9946 15.2619 36.0964 10.6749 32.7219 7.29167C29.3474 3.90847 24.7722 2.00541 20 2ZM21.2943 3.3405C20.6644 5.43467 18.9899 5.19346 18.1171 3.39344C19.1725 3.28167 20.2357 3.26395 21.2943 3.3405ZM20 36.8902C-1.38116 36.1057 -2.15574 6.39524 17.3977 3.48435C17.4277 3.99322 17.6 4.48335 17.8948 4.89865C18.1896 5.31394 18.5951 5.63764 19.0649 5.83269C20.7236 6.49634 22.1381 4.97392 22.5396 3.47503C42.1615 6.33372 41.3999 36.1066 20 36.8902Z" fill="#5A3E23"/>
<path d="M28.3369 12.4957C28.3908 12.3827 28.4084 12.2558 28.3873 12.1324C28.3662 12.009 28.3074 11.8952 28.2191 11.8066C28.1308 11.7181 28.0173 11.6592 27.8942 11.6381C27.7711 11.6169 27.6445 11.6345 27.5318 11.6885L22.8361 14.0423C19.6968 4.42866 20.2907 4.50124 17.1643 14.0423C10.511 10.5544 10.561 10.5752 14.0111 17.2037C4.42237 20.351 4.49476 19.7556 14.0111 22.8901C10.5323 29.5606 10.5533 29.5104 17.1643 26.0515C20.3036 35.6651 19.7097 35.5925 22.8361 26.0515C29.4892 29.5391 29.4395 29.5184 25.9893 22.8901C35.5781 19.7427 35.5056 20.3381 25.9893 17.2037L28.3369 12.4957ZM25.8654 14.7615C25.8886 14.4603 25.8861 14.1587 25.8898 13.8567L26.459 13.5713L25.8654 14.7615ZM24.0813 14.7633C24.0164 15.3301 24.0429 15.9038 24.1598 16.4622C24.1799 16.5276 24.2204 16.5848 24.2753 16.6254C24.3302 16.666 24.3966 16.688 24.4649 16.688C24.5331 16.688 24.5995 16.666 24.6544 16.6254C24.7093 16.5848 24.7498 16.5276 24.77 16.4622C24.8704 15.7841 24.8714 15.0949 24.773 14.4165L25.2382 14.1833C25.2279 14.561 24.9344 15.4279 25.5131 15.468L24.8392 16.8193L23.6244 16.4133L23.2194 15.1953L24.0813 14.7633ZM20.0002 9.3164L22.4635 16.726L20.0002 19.1962L17.5369 16.726L20.0002 9.3164ZM15.0632 14.4701C15.0579 14.4221 15.051 14.3738 15.0457 14.3254L15.9315 14.7695C15.8252 15.0514 15.7832 15.3536 15.8086 15.654C15.8242 15.7053 15.8543 15.751 15.8952 15.7856C15.9361 15.8202 15.986 15.8423 16.0391 15.8493C16.0921 15.8563 16.1461 15.8477 16.1945 15.8248C16.2428 15.8019 16.2836 15.7655 16.3119 15.7199C16.4284 15.519 16.4984 15.2945 16.5167 15.0629L16.781 15.1953L16.376 16.4133L15.1612 16.8193L14.7942 16.0833C15.283 15.7341 15.0859 14.9872 15.0632 14.4701ZM13.5414 13.5713L14.1022 13.8525C14.071 14.1543 14.1491 14.456 14.1338 14.7591L13.5414 13.5713ZM14.0711 25.4603C14.0756 25.7058 14.1573 25.9436 14.3046 26.1399L13.5414 26.5224L14.0711 25.4603ZM15.1088 25.7367C15.0658 25.1387 14.9679 24.546 14.8163 23.966L15.1612 23.2744L15.4073 23.3567C15.3807 23.8689 15.4171 24.3825 15.5156 24.8858C15.5332 24.9484 15.5729 25.0025 15.6273 25.0381C15.6816 25.0737 15.747 25.0883 15.8113 25.0793C15.8753 25.0699 15.9338 25.0381 15.9766 24.9895C16.0194 24.9409 16.0436 24.8787 16.045 24.8139C16.0811 24.3917 16.0609 23.9666 15.9849 23.5497L16.376 23.6805L16.781 24.8984L15.1088 25.7367ZM16.6879 22.5165L9.29747 20.0469L16.6879 17.5772L19.1518 20.0469L16.6879 22.5165ZM20.0002 30.7773L17.5369 23.3678L20.0002 20.8975L22.4635 23.3678L20.0002 30.7773ZM23.2194 24.8984L23.6244 23.6804L24.4347 23.4096C24.3449 23.8533 24.352 24.3111 24.4556 24.7518C24.4696 24.7999 24.4943 24.8443 24.5278 24.8816C24.5613 24.9188 24.6028 24.948 24.6492 24.9669C24.6956 24.9858 24.7456 24.994 24.7955 24.9907C24.8455 24.9875 24.894 24.973 24.9376 24.9483C25.0463 24.8224 25.127 24.6747 25.1744 24.5151C25.2217 24.3554 25.2346 24.1875 25.2123 24.0225L25.5139 24.6275C25.4624 24.8489 25.3501 25.1015 25.4833 25.3133C25.505 25.3425 25.5331 25.3663 25.5654 25.3829C25.5977 25.3996 25.6334 25.4086 25.6697 25.4093C25.706 25.4101 25.742 25.4025 25.7749 25.3872C25.8079 25.3718 25.8369 25.3492 25.8598 25.3209L26.459 26.5224L23.2194 24.8984ZM30.7029 20.0469L23.3125 22.5165L20.8486 20.0469L23.3125 17.5772L30.7029 20.0469Z" fill="#5A3E23"/>
<path d="M8.54498 10.8648C8.92336 10.969 10.3947 9.17135 10.6661 8.98739C11.6901 6.0752 6.25137 10.5967 8.54498 10.8648Z" fill="#5A3E23"/>
<path d="M5.00012 18.2419C4.08371 18.0928 4.05965 22.0121 4.99971 21.8511C5.91664 22.0005 5.94058 18.081 5.00012 18.2419Z" fill="#5A3E23"/>
<path d="M8.96934 29.4053C8.8561 29.2961 8.70465 29.2358 8.54755 29.2373C8.39044 29.2389 8.2402 29.3021 8.12911 29.4135C8.01801 29.5249 7.95492 29.6755 7.9534 29.833C7.95187 29.9906 8.01203 30.1424 8.12094 30.2559C8.57885 30.8516 11.2906 33.5746 10.6662 31.1066L8.96934 29.4053Z" fill="#5A3E23"/>
<path d="M21.2003 34.4844H18.8003C18.6432 34.4874 18.4936 34.5522 18.3836 34.6647C18.2735 34.7771 18.2119 34.9284 18.2119 35.0859C18.2119 35.2435 18.2735 35.3947 18.3836 35.5072C18.4936 35.6197 18.6432 35.6844 18.8003 35.6875H21.2003C21.3574 35.6844 21.5071 35.6197 21.6171 35.5072C21.7271 35.3947 21.7888 35.2435 21.7888 35.0859C21.7888 34.9284 21.7271 34.7771 21.6171 34.6647C21.5071 34.5522 21.3574 34.4874 21.2003 34.4844Z" fill="#5A3E23"/>
<path d="M31.0305 29.4043C30.6862 29.9221 27.9731 31.7485 29.7579 32.1324C30.5185 32.0607 33.5735 28.6765 31.0305 29.4043Z" fill="#5A3E23"/>
<path d="M35.0001 21.8512C35.9165 22.0003 35.9405 18.081 35.0005 18.2419C34.0835 18.0925 34.0596 22.0121 35.0001 21.8512Z" fill="#5A3E23"/>
<path d="M29.3341 8.13677C28.5811 8.68138 31.3277 11.4687 31.8791 10.6889C32.6325 10.1441 29.8857 7.35667 29.3341 8.13677Z" fill="#5A3E23"/>
<path d="M20.0496 18.1771C20.2494 18.2087 20.2404 17.9184 20.0491 17.9885C19.9899 18.0194 19.9633 18.1691 20.0496 18.1771Z" fill="#5A3E23"/>
<path d="M6.91896 33.6819C5.33594 32.37 4.05492 30.7301 3.1639 28.8749C3.02042 28.5954 2.9041 28.1829 2.61829 28.0211C2.00795 27.8385 2.25573 28.793 2.36608 29.104C2.92999 30.8971 3.94097 32.5163 5.30333 33.8083C5.86613 34.2853 6.40773 34.9415 7.17847 35.0277C7.25106 35.0453 7.32717 35.0413 7.39757 35.0164C7.46798 34.9915 7.52967 34.9466 7.57518 34.8873C7.62069 34.8279 7.64806 34.7566 7.654 34.682C7.65993 34.6073 7.64416 34.5326 7.60861 34.4668C7.43294 34.1619 7.1985 33.8951 6.91896 33.6819Z" fill="#5A3E23"/>
<path d="M9.29623 35.7262C9.19611 35.6222 9.05893 35.5623 8.91478 35.5595C8.77064 35.5568 8.6313 35.6115 8.52734 35.7117C8.42338 35.8118 8.36328 35.9492 8.36023 36.0937C8.35718 36.2382 8.41143 36.3781 8.51107 36.4825C9.00582 36.9725 9.78585 36.2365 9.29623 35.7262Z" fill="#5A3E23"/>
</svg>
