<svg width="40" height="40" viewBox="0 0 40 40" fill="none" xmlns="http://www.w3.org/2000/svg">
<path d="M0.437013 18.4523L4.92501 21.93C5.03062 22.5071 13.952 21.5273 14.3708 21.6167V23.5859C13.4217 23.7762 10.8609 23.2803 10.9196 24.8976C11.3302 28.2877 9.20035 31.6772 14.3708 31.2244V36.725C13.9465 36.9578 7.17371 36.1299 7.46706 37.3064C7.86543 38.6733 16.9198 37.5348 18.3984 37.8896C18.6512 37.6703 28.4512 38.655 25.3044 36.725H18.974V31.5167C19.2972 31.465 28.1624 32.3458 28.0517 31.8068C28.5197 31.2131 33.2375 28.353 32.9894 27.4052C33.2538 26.4748 28.5064 23.5726 28.0513 23.0036C28.1769 22.4478 19.2774 23.3688 18.974 23.2936V21.3245C19.9026 21.1801 22.1052 21.5566 22.0565 20.036C21.6362 17.075 23.7097 13.2388 18.974 13.7327V11.7511C26.5713 11.9519 26.4539 13.9226 32.5395 8.5624C34.6026 7.09321 28.1279 3.29941 27.2801 3C26.5096 3.51358 10.1543 2.92338 10.9193 5.13135C11.3372 8.51262 9.19019 11.9111 14.3708 11.4588V13.4404C13.885 13.5308 5.10737 12.5539 4.9244 13.1269C4.27252 14.0735 -1.6303 16.8444 0.437013 18.4523ZM17.8232 36.725H15.5216V31.2975L17.8232 31.4437V36.725ZM27.3515 23.9274L31.8389 27.4052L27.3521 30.8829L12.0703 29.9126L12.0701 27.9994C15.1659 28.4151 15.1524 26.4176 12.0699 26.8359L12.0697 24.8977L27.3515 23.9274ZM15.5216 23.5128V21.5437L17.8232 21.3975V23.3667L15.5216 23.5128ZM12.0703 10.147L12.0701 8.2212C15.1659 8.63696 15.1524 6.63942 12.07 7.05778L12.0698 5.13199L27.3515 4.1617L31.839 7.63947L27.3521 11.1172L12.0703 10.147ZM17.8232 11.678V13.6596L15.5216 13.5135V11.5318L17.8232 11.678ZM5.62459 14.0508L20.9058 15.0211L20.906 16.9469C17.5135 16.5273 17.5295 18.5328 20.9062 18.1103L20.9064 20.0361L5.62459 21.0064L1.13716 17.5286L5.62459 14.0508Z" fill="#5A3E23"/>
<path d="M6.36974 15.9147C6.60147 14.4909 3.62401 16.8611 3.31092 17.2238C3.27462 17.2624 3.25168 17.3118 3.24555 17.3647C3.23942 17.4176 3.25043 17.471 3.27692 17.5171C3.30342 17.5631 3.34396 17.5992 3.39248 17.6199C3.44099 17.6407 3.49485 17.6449 3.54596 17.6321C4.5425 17.2208 5.67809 16.7682 6.36974 15.9147Z" fill="#5A3E23"/>
<path d="M6.62397 15.8604C7.12404 16.3808 7.8586 15.5208 7.29533 15.0888C6.82058 14.6874 6.17457 15.4303 6.62397 15.8604Z" fill="#5A3E23"/>
<path d="M28.0685 7.08036C28.3474 7.27112 28.8102 7.58103 29.0964 7.25773C29.1407 7.20112 29.1672 7.13227 29.1722 7.06021C29.1772 6.98815 29.1605 6.91624 29.1244 6.85391C28.4603 6.20941 27.6555 5.73175 26.7752 5.45944C26.5484 5.38208 26.4001 5.68871 26.551 5.84881C27.0118 6.31294 27.5206 6.72582 28.0685 7.08036Z" fill="#5A3E23"/>
<path d="M29.955 8.26036C30.0213 8.28051 30.0914 8.28492 30.1597 8.27325C30.228 8.26158 30.2928 8.23414 30.3489 8.19307C30.405 8.152 30.451 8.0984 30.4834 8.03643C30.5157 7.97447 30.5334 7.90581 30.5352 7.83578C30.537 7.76576 30.5228 7.69626 30.4937 7.63268C30.4646 7.56911 30.4214 7.51316 30.3675 7.4692C30.3136 7.42524 30.2503 7.39444 30.1827 7.3792C30.1151 7.36396 30.0449 7.36469 29.9776 7.38133C29.8849 7.40893 29.8032 7.46553 29.7443 7.54301C29.6854 7.62049 29.6523 7.71485 29.6498 7.81253C29.6473 7.91021 29.6755 8.00618 29.7303 8.08665C29.7852 8.16711 29.8638 8.22793 29.955 8.26036Z" fill="#5A3E23"/>
<path d="M27.3223 26.5776C29.299 27.9181 30.1075 26.7494 27.7936 25.7625C27.314 25.5045 26.8053 25.306 26.2786 25.1714C26.2193 25.1567 26.1568 25.1618 26.1005 25.186C26.0442 25.2102 25.9972 25.2521 25.9664 25.3055C25.9357 25.3589 25.9228 25.421 25.9298 25.4824C25.9369 25.5438 25.9633 25.6012 26.0053 25.6462C26.4053 26.0095 26.8476 26.3222 27.3223 26.5776Z" fill="#5A3E23"/>
</svg>
