<svg width="40" height="40" viewBox="0 0 40 40" fill="none" xmlns="http://www.w3.org/2000/svg">
<path d="M35.926 30.3095C35.9714 28.4844 33.1817 29.1552 32.1078 29.0383L32.1078 21.1479C32.0881 21.1585 32.0669 21.1666 32.0472 21.177C32.0073 20.6258 32.2176 20.0178 32.001 19.4994C34.2448 18.6448 36.2593 15.4799 35.1197 13.2088C36.1013 10.5226 36.3004 7.16542 35.1595 4.51117C34.0846 3.85401 32.8415 5.99149 31.793 6.43244C30.2371 0.948344 10.6889 4.62977 7.27355 3.61138C2.22362 3.26304 0.383623 13.2282 6.6388 11.876V29.2624C6.58354 30.3501 6.60697 31.4239 6.79573 32.4984C6.98449 33.5729 7.43802 34.6371 8.26814 35.4004C9.18709 36.2453 10.5355 36.6481 11.8251 36.665C11.8266 36.6653 11.8281 36.6656 11.8295 36.666H31.4711C34.9125 36.7049 36.3569 33.3019 35.926 30.3095ZM6.63694 10.6047C6.07172 10.4784 4.0512 11.0157 4.09011 9.96914C3.88891 7.96014 4.25753 5.3363 6.63694 4.94787V10.6047ZM34.4803 5.55773C34.8439 9.4747 34.2886 14.121 30.575 16.3016C29.8799 18.5327 34.3751 15.4721 34.5354 14.3508C33.6732 21.7757 24.981 17.4922 28.2844 19.5559C27.9517 19.6769 27.6076 19.764 27.2574 19.8159C25.7219 19.906 24.1812 19.8193 22.6655 19.5577C24.0023 18.8256 33.5464 13.0911 30.6781 11.955C28.0336 13.8341 25.8136 16.4797 22.8199 17.9766C23.7776 16.1866 24.4652 14.2653 24.8604 12.2747C25.7635 15.4003 28.5571 9.50196 29.165 8.44372C29.7349 10.7131 33.297 6.0511 34.4803 5.55773ZM11.7143 35.3235C10.6761 35.316 9.88769 35.034 9.14713 34.3075C8.48509 33.658 8.12337 32.7524 7.97283 31.838C7.82793 30.9579 7.86503 30.0599 7.90732 29.1685C7.90895 29.1682 7.91062 29.1681 7.91226 29.1678V4.88393C10.4284 5.83739 30.4136 2.44049 30.6303 7.35987C30.4353 7.51528 30.2405 7.67071 30.0457 7.82616C29.3099 3.7438 27.1638 10.9202 25.7549 11.6733C24.2507 6.57037 22.4982 17.7556 20.9949 18.9915C14.958 21.5614 15.895 22.6857 21.5403 20.1247C23.7879 21.2774 28.0834 21.8192 29.8979 19.8855C30.2233 19.8924 30.5486 19.8678 30.8692 19.8119C30.8243 20.431 30.8263 21.0526 30.8753 21.6715C30.8614 21.676 30.8484 21.6821 30.8344 21.6866V29.0383H15.5511C12.7356 29.544 15.9588 34.6177 11.7143 35.3235ZM14.2105 35.3947C15.6105 34.2145 15.6255 32.0292 15.5505 30.3096H34.6529C37.2714 38.9147 17.9097 34.3091 14.2105 35.3947Z" fill="#5A3E23"/>
<path d="M20.9267 10.837C22.3386 8.42996 12.9056 9.93744 11.4002 9.22656C8.22917 10.8783 20.058 10.9963 20.9267 10.837Z" fill="#5A3E23"/>
<path d="M11.0277 13.5538C10.2887 14.6956 12.6524 14.1545 13.2329 14.1958C15.3157 13.9615 17.4028 14.5564 19.4519 14.471C21.3538 12.2549 12.0233 12.8423 11.0277 13.5538Z" fill="#5A3E23"/>
<path d="M14.4819 16.9437C13.6482 16.9732 9.6232 17.2743 11.4127 18.4513C12.6158 17.9016 18.6635 19.4485 17.7343 17.4135C16.8346 16.7273 15.5509 16.964 14.4819 16.9437Z" fill="#5A3E23"/>
<path d="M11.0882 22.0567C11.9592 22.4673 15.9476 22.7826 14.3953 21.1289C13.7397 20.8551 9.65029 20.7719 11.0882 22.0567Z" fill="#5A3E23"/>
<path d="M32.4216 31.8315C31.704 33.1238 29.9639 32.6066 29.0324 33.5621C28.5762 34.1522 29.3257 34.5766 29.8743 34.3671C32.4598 34.5358 34.3122 31.0982 32.4216 31.8315Z" fill="#5A3E23"/>
<path d="M18.4906 31.5515C17.5046 30.3146 17.5692 31.5585 17.6388 32.3667C17.6309 32.4032 17.6243 32.4454 17.618 32.4904C17.5374 32.749 17.4881 33.0162 17.4714 33.2865C17.4738 33.3043 17.5021 33.5162 17.478 33.3224C18.2275 34.7774 19.2545 32.2769 18.4906 31.5515Z" fill="#5A3E23"/>
<path d="M21.3816 31.422C21.3288 31.5174 21.3144 31.6293 21.3412 31.7349C20.2737 35.9684 23.3441 32.6616 21.9654 31.2538C21.7577 31.1393 21.4963 31.2146 21.3816 31.422Z" fill="#5A3E23"/>
<path d="M24.6314 31.64C24.126 32.0239 24.5269 32.909 24.245 33.4846C24.0569 34.294 25.1706 33.8618 25.2857 33.3607C25.6198 32.852 25.4406 31.4481 24.6314 31.64Z" fill="#5A3E23"/>
<path d="M4.98699 8.70283C4.9491 8.72544 5.14645 8.67331 5.18861 8.67054C4.76096 9.3781 5.64155 9.98361 6.29738 9.69438C6.86734 9.50363 6.50794 8.71896 5.97456 8.93471C6.48994 8.46787 6.24158 7.6314 5.48937 7.74967C6.80658 6.19158 5.90938 5.09483 4.63916 6.8939C4.22205 7.44619 3.78592 9.06572 4.98699 8.70283ZM5.8471 8.92323L5.82175 8.91962C5.8303 8.91314 5.83886 8.91603 5.8471 8.92323Z" fill="#5A3E23"/>
</svg>
